<svg width="68" height="68" viewBox="0 0 68 68" fill="none" xmlns="http://www.w3.org/2000/svg">
<path d="M54.23 36.6634C54.3434 35.8134 54.4 34.935 54.4 34C54.4 33.0934 54.3434 32.1867 54.2017 31.3367L59.9534 26.86C60.4634 26.4634 60.605 25.6984 60.2934 25.1317L54.8534 15.725C54.5134 15.1017 53.805 14.9034 53.1817 15.1017L46.41 17.8217C44.9934 16.745 43.4917 15.8384 41.82 15.1584L40.8 7.96171C40.6867 7.28172 40.12 6.80005 39.44 6.80005H28.56C27.88 6.80005 27.3417 7.28172 27.2284 7.96171L26.2084 15.1584C24.5367 15.8384 23.0067 16.7734 21.6184 17.8217L14.8467 15.1017C14.2234 14.875 13.515 15.1017 13.175 15.725L7.76336 25.1317C7.42336 25.7267 7.53669 26.4634 8.10336 26.86L13.855 31.3367C13.7134 32.1867 13.6 33.1217 13.6 34C13.6 34.8784 13.6567 35.8134 13.7984 36.6634L8.04669 41.14C7.53669 41.5367 7.39503 42.3017 7.70669 42.8684L13.1467 52.2751C13.4867 52.8984 14.195 53.0967 14.8184 52.8984L21.59 50.1784C23.0067 51.255 24.5084 52.1617 26.18 52.8417L27.2 60.0384C27.3417 60.7184 27.88 61.2001 28.56 61.2001H39.44C40.12 61.2001 40.6867 60.7184 40.7717 60.0384L41.7917 52.8417C43.4634 52.1617 44.9934 51.255 46.3817 50.1784L53.1534 52.8984C53.7767 53.125 54.485 52.8984 54.825 52.2751L60.265 42.8684C60.605 42.245 60.4634 41.5367 59.925 41.14L54.23 36.6634ZM34 44.2001C28.39 44.2001 23.8 39.6101 23.8 34C23.8 28.39 28.39 23.8 34 23.8C39.61 23.8 44.2 28.39 44.2 34C44.2 39.6101 39.61 44.2001 34 44.2001Z" fill="#BABABA"/>
</svg>
